<?xml version="1.0" standalone="no"?>
<!DOCTYPE svg PUBLIC "-//W3C//DTD SVG 20010904//EN"
 "http://www.w3.org/TR/2001/REC-SVG-20010904/DTD/svg10.dtd">
<svg version="1.0" xmlns="http://www.w3.org/2000/svg"
 width="262.000000pt" height="262.000000pt" viewBox="0 0 262.000000 262.000000"
 preserveAspectRatio="xMidYMid meet">
<metadata>
Created by potrace 1.11, written by Peter Selinger 2001-2013
</metadata>
<g transform="translate(0.000000,262.000000) scale(0.100000,-0.100000)"
fill="#000000" stroke="none">
<path d="M65 2600 c-16 -11 -38 -34 -47 -52 -17 -31 -18 -109 -18 -1238 0
-1150 1 -1207 18 -1240 40 -75 -54 -70 1292 -70 1148 0 1207 1 1239 18 19 10
43 34 53 53 17 32 18 91 18 1239 0 1148 -1 1207 -18 1239 -10 19 -34 43 -53
53 -32 17 -91 18 -1244 18 -1188 0 -1211 0 -1240 -20z"/>
</g>
</svg>
